<?xml version="1.0" encoding="iso-8859-1"?>
<!-- Generator: Adobe Illustrator 19.0.0, SVG Export Plug-In . SVG Version: 6.00 Build 0)  -->
<svg version="1.1" id="Layer_1" xmlns="http://www.w3.org/2000/svg" xmlns:xlink="http://www.w3.org/1999/xlink" x="0px" y="0px"
	 viewBox="0 0 512 512" style="enable-background:new 0 0 512 512;" xml:space="preserve">
<path style="fill:#F4F4F4;" d="M503.467,256c0,136.67-110.797,247.467-247.467,247.467c-7.168,0-14.336,0-21.333-1.024
	C98.56,490.018-1.707,369.621,10.709,233.515C21.564,114.611,115.763,20.412,234.667,9.557c6.997-1.024,14.165-1.024,21.333-1.024
	C392.67,8.533,503.467,119.33,503.467,256z"/>
<path style="fill:#FFFFFF;" d="M460.8,256c-0.094,128.333-98.278,235.298-226.133,246.357
	C98.56,489.933-1.707,369.536,10.709,233.429C21.564,114.526,115.763,20.326,234.667,9.472C362.581,20.54,460.792,127.607,460.8,256
	z"/>
<path style="fill:#A8A5A4;" d="M170.667,256c-0.009,15.625-8.55,29.995-22.272,37.461c-6.246,3.439-13.269,5.222-20.395,5.205
	c-23.561,0-42.667-19.106-42.667-42.667c-0.017-7.125,1.775-14.148,5.205-20.395c11.281-20.693,37.197-28.314,57.882-17.041
	C162.125,226.039,170.658,240.393,170.667,256z"/>
<path style="fill:#BDBDBD;" d="M153.6,273.067c0.017,7.125-1.775,14.148-5.205,20.395c-6.246,3.439-13.269,5.222-20.395,5.205
	c-23.561,0-42.667-19.106-42.667-42.667c-0.017-7.125,1.775-14.148,5.205-20.395c6.246-3.439,13.269-5.222,20.395-5.205
	C134.494,230.4,153.6,249.506,153.6,273.067z"/>
<path style="fill:#717272;" d="M298.667,256c-0.009,15.625-8.55,29.995-22.272,37.461c-6.246,3.439-13.269,5.222-20.395,5.205
	c-23.561,0-42.667-19.106-42.667-42.667c-0.017-7.125,1.775-14.148,5.205-20.395c11.281-20.693,37.197-28.314,57.882-17.041
	C290.125,226.039,298.658,240.393,298.667,256z"/>
<path style="fill:#A8A5A4;" d="M281.6,273.067c0.017,7.125-1.775,14.148-5.205,20.395c-6.246,3.439-13.269,5.222-20.395,5.205
	c-23.561,0-42.667-19.106-42.667-42.667c-0.017-7.125,1.775-14.148,5.205-20.395c6.246-3.439,13.269-5.222,20.395-5.205
	C262.494,230.4,281.6,249.506,281.6,273.067z"/>
<path style="fill:#555656;" d="M426.667,256c-0.009,15.625-8.55,29.995-22.272,37.461c-6.246,3.439-13.269,5.222-20.395,5.205
	c-23.561,0-42.667-19.106-42.667-42.667c-0.017-7.125,1.775-14.148,5.205-20.395c11.281-20.693,37.197-28.314,57.882-17.041
	C418.125,226.039,426.658,240.393,426.667,256z"/>
<path style="fill:#717272;" d="M409.6,273.067c0.017,7.125-1.775,14.148-5.205,20.395c-6.246,3.439-13.269,5.222-20.395,5.205
	c-23.561,0-42.667-19.106-42.667-42.667c-0.017-7.125,1.775-14.148,5.205-20.395c6.246-3.439,13.269-5.222,20.395-5.205
	C390.494,230.4,409.6,249.506,409.6,273.067z"/>
<path d="M256,512C114.611,512,0,397.389,0,256S114.611,0,256,0s256,114.611,256,256S397.389,512,256,512z M256,17.067
	C124.041,17.067,17.067,124.041,17.067,256S124.041,494.933,256,494.933S494.933,387.96,494.933,256S387.96,17.067,256,17.067z"/>
<path d="M128,307.2c-28.279,0-51.2-22.921-51.2-51.2c0-28.279,22.921-51.2,51.2-51.2s51.2,22.921,51.2,51.2
	C179.2,284.279,156.279,307.2,128,307.2z M128,221.867c-18.85,0-34.133,15.283-34.133,34.133c0,18.85,15.283,34.133,34.133,34.133
	S162.133,274.85,162.133,256C162.133,237.15,146.85,221.867,128,221.867z"/>
<path d="M256,307.2c-28.279,0-51.2-22.921-51.2-51.2c0-28.279,22.921-51.2,51.2-51.2c28.279,0,51.2,22.921,51.2,51.2
	C307.2,284.279,284.279,307.2,256,307.2z M256,221.867c-18.85,0-34.133,15.283-34.133,34.133c0,18.85,15.283,34.133,34.133,34.133
	c18.85,0,34.133-15.283,34.133-34.133C290.133,237.15,274.85,221.867,256,221.867z"/>
<path d="M384,307.2c-28.279,0-51.2-22.921-51.2-51.2c0-28.279,22.921-51.2,51.2-51.2c28.279,0,51.2,22.921,51.2,51.2
	C435.2,284.279,412.279,307.2,384,307.2z M384,221.867c-18.85,0-34.133,15.283-34.133,34.133c0,18.85,15.283,34.133,34.133,34.133
	S418.133,274.85,418.133,256C418.133,237.15,402.85,221.867,384,221.867z"/>
<g>
</g>
<g>
</g>
<g>
</g>
<g>
</g>
<g>
</g>
<g>
</g>
<g>
</g>
<g>
</g>
<g>
</g>
<g>
</g>
<g>
</g>
<g>
</g>
<g>
</g>
<g>
</g>
<g>
</g>
</svg>
